<svg width="106" height="24" viewBox="0 0 106 24" fill="none" xmlns="http://www.w3.org/2000/svg">
<g id="redes">
<path id="Vector" d="M62.5927 0.620972H43.0266C41.4823 0.620972 40.2314 1.77665 40.2314 3.20349V21.2811C40.2314 22.708 41.4823 23.8636 43.0266 23.8636H62.5927C64.137 23.8636 65.3878 22.708 65.3878 21.2811V3.20349C65.3878 1.77665 64.137 0.620972 62.5927 0.620972ZM46.8532 18.6986C45.8791 18.6986 45.0894 17.969 45.0894 17.069V11.2881C45.0908 10.3893 45.8805 9.65979 46.8532 9.65979C47.8273 9.65979 48.6169 10.3894 48.6169 11.2894V17.0703C48.6169 17.969 47.8273 18.6986 46.8532 18.6986ZM46.7917 8.0031C45.7141 8.0031 44.9944 7.3394 44.9944 6.45359C44.9944 5.56779 45.7127 4.90408 46.9105 4.90408C47.988 4.90408 48.7077 5.56779 48.7077 6.45359C48.7077 7.3394 47.9894 8.0031 46.7917 8.0031ZM59.4887 18.6986C58.5467 18.6986 57.7822 17.9923 57.7822 17.122V13.7582C57.7822 12.3921 56.8724 12.2423 56.5314 12.2423C56.1904 12.2423 55.0527 12.2875 55.0527 13.7582V17.122C55.0527 17.9923 54.2883 18.6986 53.3463 18.6986H53.2331C52.2911 18.6986 51.5267 17.9923 51.5267 17.122V11.2894C51.5267 10.3894 52.3163 9.65979 53.2904 9.65979C54.2645 9.65979 55.0541 10.3894 55.0541 11.2894C55.0541 11.2894 55.4483 9.65979 58.126 9.65979C59.8297 9.65979 61.1951 10.9213 61.1951 13.7582V17.122C61.1951 17.9923 60.4306 18.6986 59.4887 18.6986Z" fill="#C95E20"/>
<path id="Vector_2" d="M7.08896 0.620972C3.23025 0.620972 0.101074 3.5121 0.101074 7.07727V17.4073C0.101074 20.9725 3.23025 23.8636 7.08896 23.8636H18.2696C22.1283 23.8636 25.2575 20.9725 25.2575 17.4073V7.07727C25.2575 3.5121 22.1283 0.620972 18.2696 0.620972H7.08896ZM21.0647 3.20349C21.8362 3.20349 22.4623 3.78198 22.4623 4.49475C22.4623 5.20753 21.8362 5.78601 21.0647 5.78601C20.2933 5.78601 19.6672 5.20753 19.6672 4.49475C19.6672 3.78198 20.2933 3.20349 21.0647 3.20349ZM12.6793 5.78601C16.538 5.78601 19.6672 8.67714 19.6672 12.2423C19.6672 15.8075 16.538 18.6986 12.6793 18.6986C8.82056 18.6986 5.69138 15.8075 5.69138 12.2423C5.69138 8.67714 8.82056 5.78601 12.6793 5.78601ZM12.6793 8.36853C11.5673 8.36853 10.5008 8.77666 9.71456 9.50313C8.92827 10.2296 8.48654 11.2149 8.48654 12.2423C8.48654 13.2697 8.92827 14.255 9.71456 14.9815C10.5008 15.708 11.5673 16.1161 12.6793 16.1161C13.7912 16.1161 14.8577 15.708 15.644 14.9815C16.4303 14.255 16.872 13.2697 16.872 12.2423C16.872 11.2149 16.4303 10.2296 15.644 9.50313C14.8577 8.77666 13.7912 8.36853 12.6793 8.36853Z" fill="#C95E20"/>
<path id="Vector_3" d="M99.9282 0.620972H85.9524C82.8651 0.620972 80.3621 2.93362 80.3621 5.78601V18.6986C80.3621 21.551 82.8651 23.8636 85.9524 23.8636H99.9282C103.015 23.8636 105.518 21.551 105.518 18.6986V5.78601C105.518 2.93362 103.015 0.620972 99.9282 0.620972ZM99.998 9.03224C99.998 9.14328 99.998 9.25304 99.998 9.47514C99.998 13.6808 96.5237 18.5514 90.1745 18.5514C88.2584 18.5514 86.4611 17.9975 84.9042 17.1129C85.1432 17.1129 85.5037 17.1129 85.7427 17.1129C87.2996 17.1129 88.8579 16.559 90.0557 15.7842C88.4988 15.7842 87.301 14.7887 86.8217 13.571C87.0607 13.571 87.301 13.6821 87.4212 13.6821C87.7804 13.6821 88.0208 13.6821 88.38 13.571C86.8231 13.2392 85.6253 12.0215 85.6253 10.472C86.1047 10.6928 86.5841 10.8038 87.1822 10.9149C86.2235 10.1401 85.6253 9.25433 85.6253 8.14772C85.6253 7.59377 85.7455 7.04111 86.1047 6.59821C87.7818 8.47958 90.2974 9.80828 93.1723 9.91804C93.1723 9.69723 93.0521 9.47514 93.0521 9.14329C93.0521 7.37297 94.609 5.93321 96.5264 5.93321C97.4852 5.93321 98.4425 6.26507 99.0421 6.92877C99.8806 6.81773 100.599 6.48587 101.199 6.15402C100.96 6.92877 100.36 7.48272 99.6416 7.92434C100.36 7.81329 100.96 7.70353 101.678 7.37039C101.196 8.03668 100.598 8.58933 99.998 9.03224Z" fill="#C95E20"/>
</g>
</svg>
